<?xml version="1.0" encoding="UTF-8"?>
<!DOCTYPE svg PUBLIC "-//W3C//DTD SVG 1.1//EN" "http://www.w3.org/Graphics/SVG/1.1/DTD/svg11.dtd">
<!-- Creator: CorelDRAW 2020 (64-Bit) -->
<svg xmlns="http://www.w3.org/2000/svg" xml:space="preserve" width="1080px" height="1041px" version="1.1" style="shape-rendering:geometricPrecision; text-rendering:geometricPrecision; image-rendering:optimizeQuality; fill-rule:evenodd; clip-rule:evenodd"
viewBox="0 0 1039.29 1002.16"
 xmlns:xlink="http://www.w3.org/1999/xlink"
 xmlns:xodm="http://www.corel.com/coreldraw/odm/2003">
 <defs>
  <style type="text/css">
   <![CDATA[
    .fil6 {fill:#00A9B5}
    .fil1 {fill:#00C6CD}
    .fil3 {fill:#4B223B}
    .fil5 {fill:#A23594}
    .fil0 {fill:#C85DB9}
    .fil7 {fill:#FF5222}
    .fil2 {fill:#FF6B34}
    .fil4 {fill:#FFBA13}
   ]]>
  </style>
 </defs>
 <g id="Слой_x0020_1">
  <metadata id="CorelCorpID_0Corel-Layer"/>
  <g id="_2181411837584">
   <path class="fil0" d="M943.29 289.16l0 399.02 0 35.69 0 102.66c0,43.61 -36.02,79.62 -79.62,79.62l-28.62 0c-43.6,0 -79.62,-36.01 -79.62,-79.62l0 -238.43 127.98 -278.36c11.73,-25.51 50.36,-79.73 59.88,-20.58z"/>
   <path class="fil1" d="M650.28 148.86c30.4,-32.33 72.2,-52.86 119.67,-52.86 51.61,0 100.31,24.63 132.87,62.53 -35.6,17.4 -77.92,48.64 -104.61,106.71 -31.55,68.61 -63.1,137.22 -94.64,205.84 -22.41,48.74 -32.84,50.71 -55.75,0.9 -19.51,-42.45 -39.03,-84.9 -58.54,-127.35 -22.1,-38.66 -18.75,-58.31 -3.09,-88.67 16.97,-32.9 39.74,-81.18 64.09,-107.1z"/>
   <path class="fil2" d="M379.87 455.38l0 29.79 0 57.16c0,43.61 79.33,117.5 124.21,117.5l29.45 0c21.59,0 51.56,-14.62 70.54,-34.89 23,-24.58 -45.3,-118.75 -64.76,-161.65l-96.7 -213.16c-2.09,-2.22 -24.11,-69.48 -48.14,-37.88 -9.45,12.43 -14.06,28.41 -14.06,44.98l0 198.15 -0.54 0z"/>
   <path class="fil3" d="M379.87 455.38l0 29.79 0 57.16c0,43.61 79.33,117.5 124.21,117.5l29.45 0c21.59,0 51.56,-14.62 70.54,-34.89 23,-24.58 -45.3,-118.75 -64.76,-161.65l-96.7 -213.16c-2.09,-2.22 -24.11,-69.48 -48.14,-37.88 -9.45,12.43 -14.06,28.41 -14.06,44.98l0 198.15 -0.54 0zm390.08 -455.38l0 0c-117.14,0 -216.96,77.87 -250.3,184.39 -33.34,-106.52 -133.16,-184.39 -250.3,-184.39l-0.01 0c-144.2,0 -269.34,119.9 -269.34,264.1l0 424.08 0 35.69 0 102.66c0,96.6 79.03,175.63 175.63,175.63l28.61 0c96.6,0 175.63,-79.03 175.63,-175.63l0 -119.02c32.45,29.91 76.22,48.32 124.21,48.32l29.45 0c48.83,0 93.28,-19.07 125.89,-49.91l0 120.61c0,96.6 79.04,175.63 175.63,175.63l28.62 0c96.59,0 175.62,-79.03 175.62,-175.63l0 -102.66 0 -35.69 0 -424.08c0,-144.2 -125.14,-264.1 -269.34,-264.1zm-114.69 143.77c29.91,-29.49 69.65,-47.77 114.69,-47.77 51.61,0 100.31,24.63 132.87,62.53 -35.6,17.4 -77.92,48.64 -104.61,106.71 -31.55,68.61 -63.1,137.22 -94.64,205.84 -22.41,48.74 -32.84,50.71 -55.75,0.9 -19.51,-42.45 -39.03,-84.9 -58.54,-127.35 -19.6,-34.28 -19.28,-51.96 -8.03,-76.78 16.32,-36.01 46.83,-97.29 74.01,-124.08zm288.03 145.39l0 399.02 0 35.69 0 102.66c0,43.61 -36.02,79.62 -79.62,79.62l-28.62 0c-43.6,0 -79.62,-36.01 -79.62,-79.62l0 -238.43 127.98 -278.36c11.73,-25.51 50.36,-79.73 59.88,-20.58zm-847.29 399.02l0 35.69 0 102.66c0,43.61 36.02,79.62 79.63,79.62l28.61 0c43.61,0 79.63,-36.01 79.63,-79.62l0 -552.8 0.56 0c0.75,-45.57 23.45,-113.54 61.2,-158.97 -22.89,-11.97 -48.85,-18.76 -76.29,-18.76 -91.2,0 -173.34,76.89 -173.34,168.1l0 424.08z"/>
   <path class="fil4" d="M96 688.18l0 35.69 0 102.66c0,43.61 36.02,79.62 79.63,79.62l28.61 0c43.61,0 79.63,-36.01 79.63,-79.62l0 -552.8 0.56 0c0.75,-45.57 23.45,-113.54 61.2,-158.97 -22.89,-11.97 -48.85,-18.76 -76.29,-18.76 -91.2,0 -173.34,76.89 -173.34,168.1l0 424.08z"/>
   <path class="fil5" d="M943.29 289.16l0 76.28c-9.52,-59.15 -48.15,-4.93 -59.88,20.58l-127.98 278.36 0 -76.28 127.98 -278.36c11.73,-25.51 50.36,-79.73 59.88,-20.58z"/>
   <path class="fil6" d="M710.51 455.97l-6.94 15.11c-22.41,48.74 -32.84,50.71 -55.75,0.9 -19.51,-42.45 -39.03,-84.9 -58.54,-127.35 -22.1,-38.66 -18.75,-58.31 -3.09,-88.67 4.4,-8.53 9.19,-18.09 14.29,-28.03 -10.31,24.07 -10.14,43.27 8.88,76.54 19.51,42.45 39.03,84.9 58.54,127.35 17.94,39.01 28.23,46.26 42.61,24.15z"/>
   <path class="fil7" d="M379.87 455.38l0 29.79 0 57.16c0,19.26 15.48,44.43 36.63,66.53l0 -45.44 0 -29.8 0.54 0 0 -198.14c0,-16.57 4.6,-32.55 14.06,-44.98 12.58,-16.55 24.62,-5.98 33.52,8.16l-22.01 -48.53c-2.09,-2.22 -24.11,-69.48 -48.14,-37.88 -9.45,12.43 -14.06,28.41 -14.06,44.98l0 198.15 -0.54 0z"/>
  </g>
 </g>
</svg>
